<?xml version="1.0" encoding="UTF-8"?>
<svg width="24px" height="24px" viewBox="0 0 24 24" version="1.1" xmlns="http://www.w3.org/2000/svg" xmlns:xlink="http://www.w3.org/1999/xlink">
    <!-- Generator: Sketch 63.1 (92452) - https://sketch.com -->
    <title>Icons/crypto/doge</title>
    <desc>Created with Sketch.</desc>
    <defs>
        <path d="M0,16.1803071 L0,12.3645904 L2.2310475,12.3645904 L2.2310475,3.66976038 L0.0104254556,3.66976038 L0.0104254556,0.0104254556 L0.33361458,0.0104254556 C3.3361458,0.0104254556 6.31782611,0.0208509113 9.32035733,0 C9.98758649,0 10.571412,0.177232746 11.1552375,0.406592769 C12.333314,0.854887361 13.3654341,1.55339289 14.1890451,2.53338572 C14.918827,3.40912399 15.4192489,4.42039319 15.6798853,5.52549148 C16.1177544,7.44377532 16.1281799,9.38291006 15.5756307,11.280343 C14.8458488,13.751176 13.2820305,15.4505252 10.686092,16.0239253 C10.2377974,16.1281799 9.75822647,16.1907326 9.28908096,16.1907326 L0.364890947,16.1907326 C0.250210935,16.1803071 0.135530923,16.1803071 0,16.1803071 Z M6.77654616,12.3541649 C7.28739348,12.3541649 7.7773899,12.3854413 8.26738631,12.3437395 C8.9033391,12.2811867 9.47673916,12.0831031 9.90418284,11.5305539 C10.2690738,11.0614084 10.5922629,10.5922629 10.7486448,10.0397138 C11.0926848,8.83036092 10.9571539,7.60015715 10.7173684,6.38037884 C10.5818375,5.65059695 10.2377974,4.98336779 9.77907738,4.43081864 C9.50801553,4.11805497 9.13269913,3.76358948 8.75738273,3.70103675 C8.13185539,3.58635674 7.45420077,3.66976038 6.77654616,3.66976038 L6.77654616,12.3541649 Z" id="path-1"></path>
    </defs>
    <g id="Icons/crypto/doge" stroke="none" stroke-width="1" fill="none" fill-rule="evenodd">
        <g id="Color/blue" transform="translate(4.000000, 4.000000)">
            <g>
                <mask id="mask-2" fill="white">
                    <use xlink:href="#path-1"></use>
                </mask>
                <use id="Mask" fill="#C2A633" fill-rule="nonzero" xlink:href="#path-1"></use>
                <g mask="url(#mask-2)" fill="#1428E5" id="Rectangle">
                    <g transform="translate(-4.000000, -4.000000)">
                        <rect x="0" y="0" width="24" height="24"></rect>
                    </g>
                </g>
            </g>
        </g>
    </g>
</svg>