<svg xmlns="http://www.w3.org/2000/svg" width="17" height="21" viewBox="0 0 17 21"><g><g><path fill="#1428e5" d="M12.75 8.323c-.502 2.013-3.603.99-4.61.74l.888-3.56c1.006.251 4.246.72 3.723 2.82zm-.55 5.75c-.551 2.218-4.278 1.019-5.486.718l.979-3.933c1.208.303 5.082.901 4.507 3.215zm.5-9.817l.73-2.928-1.783-.444-.71 2.85c-.47-.116-.95-.226-1.429-.336l.716-2.87L8.443.086l-.731 2.927a59.663 59.663 0 0 1-1.138-.268l.002-.009-2.458-.614-.474 1.904s1.322.303 1.294.322c.722.18.853.658.83 1.036l-.83 3.336c.049.013.113.031.184.06l-.188-.047-1.165 4.673c-.089.219-.313.548-.817.423.018.026-1.296-.323-1.296-.323l-.885 2.04 2.32.578c.431.108.854.222 1.27.328l-.737 2.962 1.78.444.73-2.93c.487.132.96.254 1.421.368l-.728 2.917 1.783.444.737-2.956c3.04.575 5.325.343 6.287-2.406.775-2.213-.039-3.49-1.638-4.322 1.165-.269 2.042-1.035 2.276-2.617.323-2.162-1.322-3.324-3.573-4.1z"/></g></g></svg>
