<svg xmlns="http://www.w3.org/2000/svg" width="52" height="29" viewBox="0 0 52 29">
  <path id="Fill_1" data-name="Fill 1" d="M52,12.443H47.607a1.008,1.008,0,0,1-.962-1.331q.172-.5.341-1,.779-2.287,1.393-4.08t1-2.977q.389-1.185.446-1.351a2.142,2.142,0,0,1,.306-.717.87.87,0,0,1,.64-.331V0h-9.36V.662a4.653,4.653,0,0,1,.807.276.654.654,0,0,1,.363.662,9.234,9.234,0,0,1-.363,1.323Q41.859,4.08,41.3,5.734T40.1,9.345q-.641,1.958-1.254,3.777T37.765,16.4q-.474,1.462-.641,2.123h-.111q-.224-.882-.669-2.481T35.4,12.6q-.5-1.846-1.059-3.8t-1-3.556q-.447-1.6-.725-2.646t-.279-1.1A.581.581,0,0,1,32.611.91,4,4,0,0,1,33.28.662V0H20.02V.662l.752.248a.558.558,0,0,1,.418.579,8.532,8.532,0,0,1-.279,1.185q-.28,1.021-.752,2.564T19.1,8.656q-.585,1.875-1.17,3.721t-1.086,3.473q-.5,1.627-.836,2.674H15.9q-.334-1.1-.864-2.757t-1.142-3.5q-.614-1.846-1.226-3.694T11.551,5.183q-.5-1.543-.808-2.536a7.3,7.3,0,0,1-.306-1.158A.56.56,0,0,1,10.771.91a5.217,5.217,0,0,1,.836-.248V0H1.411V.662c.259,0,.446.2.557.606q.055.165.446,1.378t1,3.06Q4.029,7.554,4.81,9.869l.421,1.249a1.008,1.008,0,0,1-.965,1.325H0l1.114,4.411H6.439a1.018,1.018,0,0,1,.966.692q.28.84.553,1.668.752,2.289,1.365,4.08t.975,2.894A10.646,10.646,0,0,1,10.66,27.4q0,.552-.334.689a5.486,5.486,0,0,1-.78.248V29H21.58v-.662q-1.226,0-1.226-.772a15.285,15.285,0,0,1,.669-2.536q.669-2.15,1.616-5.072t1.95-6.092q1-3.17,1.671-5.6h.112q.779,2.757,1.7,5.872T29.8,20.013q.807,2.758,1.365,4.824a13.7,13.7,0,0,1,.557,2.729q0,.608-1.114.772V29H42.194v-.662a4.829,4.829,0,0,1-.753-.165q-.362-.11-.362-.606a11.155,11.155,0,0,1,.362-1.24q.363-1.129.975-2.922t1.365-4.052q.3-.9.614-1.814a1.019,1.019,0,0,1,.964-.684h5.526Z" fill="#1428e5"/>
</svg>
