<svg xmlns="http://www.w3.org/2000/svg" width="15" height="16" viewBox="0 0 15 16"><g><g><path fill="#1d2024" d="M0 1.04C0 .466.466 0 1.04 0h13.02c.574 0 1.04.466 1.04 1.04v13.52a1.04 1.04 0 0 1-1.04 1.04H1.04A1.04 1.04 0 0 1 0 14.56zm1.998 2.61c0 .287.233.52.52.52h9.99a.52.52 0 0 0 .52-.52V2.008a.52.52 0 0 0-.52-.52h-9.99a.52.52 0 0 0-.52.52zm1.705 4.964c0 .287.233.52.52.52h1.648a.52.52 0 0 0 .52-.52V6.976a.52.52 0 0 0-.52-.52H4.223a.52.52 0 0 0-.52.52zm4.93 0c0 .287.234.52.52.52h1.649a.52.52 0 0 0 .52-.52V6.976a.52.52 0 0 0-.52-.52H9.154a.52.52 0 0 0-.52.52zm-4.93 4.403c0 .288.233.52.52.52h1.648a.52.52 0 0 0 .52-.52V11.37a.52.52 0 0 0-.52-.52H4.223a.52.52 0 0 0-.52.52zm4.93 0c0 .288.234.52.52.52h1.649a.52.52 0 0 0 .52-.52V11.37a.52.52 0 0 0-.52-.52H9.154a.52.52 0 0 0-.52.52z"/></g></g></svg>