<svg id="Color_blue" data-name="Color/blue" xmlns="http://www.w3.org/2000/svg" xmlns:xlink="http://www.w3.org/1999/xlink" width="16" height="13.061" viewBox="0 0 16 13.061">
  <defs>
    <clipPath id="clip-path">
      <path id="Mask" d="M6.2,13.061H2.938A2.842,2.842,0,0,1,.862,12.2,2.84,2.84,0,0,1,0,10.122V2.938A2.842,2.842,0,0,1,.862.862,2.842,2.842,0,0,1,2.938,0H6.2a.312.312,0,0,1,.23.1.311.311,0,0,1,.1.23c0,.028,0,.1.01.2A2.415,2.415,0,0,1,6.546.8a1.731,1.731,0,0,1-.031.239.341.341,0,0,1-.1.2.3.3,0,0,1-.21.067H2.938a1.579,1.579,0,0,0-1.153.48,1.579,1.579,0,0,0-.48,1.153v7.184a1.579,1.579,0,0,0,.48,1.153,1.576,1.576,0,0,0,1.153.48H6.123l.117.01c.079.007.117.017.117.031s.028.032.082.057.078.054.071.091a.281.281,0,0,0,.021.139c0,.027,0,.1.011.2a2.582,2.582,0,0,1,0,.27,1.731,1.731,0,0,1-.031.239.343.343,0,0,1-.1.2A.308.308,0,0,1,6.2,13.061ZM9.8,12.735a.662.662,0,0,1-.653-.653V9.143H4.571a.662.662,0,0,1-.653-.653V4.571a.661.661,0,0,1,.653-.652H9.143V.979A.63.63,0,0,1,9.337.52a.642.642,0,0,1,.919,0l5.55,5.551a.64.64,0,0,1,0,.919l-5.55,5.55A.631.631,0,0,1,9.8,12.735Z" fill="none"/>
    </clipPath>
  </defs>
  <path id="Mask-2" data-name="Mask" d="M6.2,13.061H2.938A2.842,2.842,0,0,1,.862,12.2,2.84,2.84,0,0,1,0,10.122V2.938A2.842,2.842,0,0,1,.862.862,2.842,2.842,0,0,1,2.938,0H6.2a.312.312,0,0,1,.23.1.311.311,0,0,1,.1.23c0,.028,0,.1.01.2A2.415,2.415,0,0,1,6.546.8a1.731,1.731,0,0,1-.031.239.341.341,0,0,1-.1.2.3.3,0,0,1-.21.067H2.938a1.579,1.579,0,0,0-1.153.48,1.579,1.579,0,0,0-.48,1.153v7.184a1.579,1.579,0,0,0,.48,1.153,1.576,1.576,0,0,0,1.153.48H6.123l.117.01c.079.007.117.017.117.031s.028.032.082.057.078.054.071.091a.281.281,0,0,0,.021.139c0,.027,0,.1.011.2a2.582,2.582,0,0,1,0,.27,1.731,1.731,0,0,1-.031.239.343.343,0,0,1-.1.2A.308.308,0,0,1,6.2,13.061ZM9.8,12.735a.662.662,0,0,1-.653-.653V9.143H4.571a.662.662,0,0,1-.653-.653V4.571a.661.661,0,0,1,.653-.652H9.143V.979A.63.63,0,0,1,9.337.52a.642.642,0,0,1,.919,0l5.55,5.551a.64.64,0,0,1,0,.919l-5.55,5.55A.631.631,0,0,1,9.8,12.735Z" fill="none"/>
  <g id="Color_blue-2" data-name="Color/blue" clip-path="url(#clip-path)">
    <g id="Color_blue-3" data-name="Color/blue" transform="translate(-4 -5)">
      <rect id="Rectangle" width="80" height="80" fill="#fff"/>
    </g>
  </g>
</svg>
