<svg xmlns="http://www.w3.org/2000/svg" width="16" height="17" viewBox="0 0 16 17"><g><g><path fill="#1d2024" d="M5.989 8.451c0-1.08.866-1.95 1.93-1.95 1.062 0 1.928.87 1.928 1.95a1.94 1.94 0 0 1-1.929 1.95 1.94 1.94 0 0 1-1.93-1.95zM4.977 3.099L3.52 1.995a.312.312 0 0 0-.409.028l-1.59 1.59a.312.312 0 0 0-.03.409l1.102 1.463a6.087 6.087 0 0 0-.515 1.23l-1.809.25A.312.312 0 0 0 0 7.273v2.249c0 .155.114.287.268.309l1.78.251c.124.448.297.875.513 1.275l-1.076 1.42a.312.312 0 0 0 .028.408l1.59 1.59c.11.11.285.123.409.03L4.9 13.76a6.04 6.04 0 0 0 1.318.56l.235 1.708c.02.154.153.27.309.27h2.241a.312.312 0 0 0 .309-.27l.238-1.688c.477-.133.93-.323 1.352-.562l1.364 1.034a.312.312 0 0 0 .41-.028l1.59-1.59a.312.312 0 0 0 .029-.408L13.253 11.4c.227-.413.408-.855.535-1.32l1.73-.237a.312.312 0 0 0 .27-.31V7.285a.312.312 0 0 0-.269-.309l-1.757-.248a6.088 6.088 0 0 0-.537-1.275l1.077-1.422a.312.312 0 0 0-.028-.409l-1.59-1.59a.312.312 0 0 0-.408-.03l-1.44 1.085a6.037 6.037 0 0 0-1.267-.518L9.324.78a.312.312 0 0 0-.31-.27h-2.24a.312.312 0 0 0-.31.269L6.21 2.584c-.433.127-.846.3-1.233.515z"/></g></g></svg>