<svg xmlns="http://www.w3.org/2000/svg" width="16" height="16" viewBox="0 0 16 16"><g><g><path fill="#1428e5" d="M0 1.55C0 .976.466.51 1.04.51h12.721c.574 0 1.04.466 1.04 1.04v3.341c.243.19.399.486.399.819v5.2c0 .333-.156.629-.399.819v3.341a1.04 1.04 0 0 1-1.04 1.04H1.04A1.04 1.04 0 0 1 0 15.07zm5.076 10.92c0 .574.465 1.04 1.04 1.04h8.675v-1.773a1.035 1.035 0 0 1-.631.213H8.077a1.04 1.04 0 0 1-1.04-1.04v-5.2c0-.574.466-1.04 1.04-1.04h6.083c.237 0 .456.08.631.213V3.11H6.116a1.04 1.04 0 0 0-1.04 1.04zm4.008-3.332c0 .287.233.52.52.52h1.467a.52.52 0 0 0 .52-.52V7.49a.52.52 0 0 0-.52-.52H9.604a.52.52 0 0 0-.52.52z"/></g></g></svg>
