<?xml version="1.0" encoding="UTF-8"?>
<svg width="24px" height="24px" viewBox="0 0 24 24" version="1.1" xmlns="http://www.w3.org/2000/svg" xmlns:xlink="http://www.w3.org/1999/xlink">
    <defs>
        <path d="M10.4033241,5.84277538 C10.8762118,5.84277538 11.2662683,6.263136 11.2662683,6.78003665 L11.2662683,6.78003665 L11.2662683,11.3488787 C11.2662683,11.3646079 11.2655467,11.3804814 11.2655467,11.396355 L11.2659075,11.4061497 L11.2659075,11.4061497 L11.2662683,11.4158362 L11.2662683,13.3700151 C11.2662683,13.5128771 11.3820009,13.6286097 11.5248629,13.6286097 C11.6675806,13.6286097 11.7834575,13.5128771 11.7834575,13.3700151 L11.7834575,13.3700151 L11.7834575,11.3575369 C11.7834575,10.8586744 12.1690406,10.471504 12.6302395,10.471504 L12.6302395,10.471504 L12.6565031,10.471504 C13.129535,10.471504 13.5197358,10.879743 13.5197358,11.3964993 L13.5197358,11.3964993 L13.5197358,13.1837173 C13.5197358,13.3265793 13.6354685,13.4423119 13.7783305,13.4423119 C13.9210481,13.4423119 14.0369251,13.3265793 14.0369251,13.1837173 L14.0369251,13.1837173 L14.0369251,11.7815052 C14.0369251,11.2646045 14.4122625,10.8440996 14.887892,10.8440996 C15.3609239,10.8440996 15.7362613,11.2646045 15.7362613,11.7815052 L15.7362613,11.7815052 L15.7362613,13.1044938 C15.7362613,13.2472115 15.851994,13.3630885 15.9948559,13.3630885 C16.1375736,13.3630885 16.2534506,13.2472115 16.2534506,13.1044938 L16.2534506,13.1044938 L16.2534506,12.3880193 C16.2534506,11.8711186 16.6517325,11.4689405 17.1249087,11.4689405 L17.1249087,11.4689405 L17.1495849,11.4689405 C17.6214624,11.4689405 18.0063239,11.8790554 18.0074784,12.394513 C18.011086,13.9612329 18.0105088,14.4843387 18.0086328,15.9066092 C18.0080917,16.3056487 18.0074694,16.7769309 18.0068268,17.3591138 L18.0061797,17.9796954 C18.0045923,19.6425224 16.7481283,21 15.2052187,21 L15.2052187,21 L11.5795545,21 C10.5678318,21 9.63158072,20.4043088 9.13647014,19.4529056 L9.13647014,19.4529056 L6,13.4254282 L6.17706227,13.2773712 C6.18052559,13.2744852 6.18384461,13.2710219 6.18701934,13.2681357 C6.45946727,13.0117057 6.82629067,12.8800995 7.19960783,12.9047756 C7.58100607,12.9337809 7.93311037,13.1199345 8.1716466,13.4187902 L8.1716466,13.4187902 L9.07629491,14.519982 C9.14556133,14.6044005 9.26042815,14.6361475 9.36317334,14.5993498 C9.46606283,14.562552 9.53460773,14.4651461 9.53475206,14.3559072 L9.53475206,14.3559072 L9.53994701,6.77945943 C9.54037993,6.26299167 9.93029218,5.84277538 10.4033241,5.84277538 Z M9.0901482,4.35022834 C9.89666908,3.88325722 10.8913638,3.88325722 11.6978847,4.35022834 C12.5044055,4.81719946 12.9996604,5.67999929 12.9960724,6.61192128 C12.9960724,6.75478326 12.8803202,6.87051592 12.7374582,6.87051592 C12.5947405,6.87051592 12.4788635,6.75478326 12.4788635,6.61192128 C12.4820383,5.86499838 12.0853437,5.17334431 11.4390014,4.79901701 C10.7926591,4.42468974 9.99537376,4.42468974 9.34903146,4.79901701 C8.70268916,5.17334431 8.30599461,5.86499838 8.309025,6.61192128 C8.309025,6.75478326 8.19329238,6.87051592 8.05043037,6.87051592 C7.90771269,6.87051592 7.79181768,6.75478326 7.79181768,6.61192128 C7.78837241,5.67999929 8.28362732,4.81719946 9.0901482,4.35022834 Z" id="path-1"></path>
    </defs>
    <g id="Icons/nothing" stroke="none" stroke-width="1" fill="none" fill-rule="evenodd">
        <mask id="mask-2" fill="white">
            <use xlink:href="#path-1"></use>
        </mask>
        <use id="Mask" fill="#000000" fill-rule="nonzero" xlink:href="#path-1"></use>
        <g id="Color/blue" mask="url(#mask-2)" fill="#1428E5">
            <rect id="Rectangle" x="0" y="0" width="24" height="24"></rect>
        </g>
    </g>
</svg>
