<svg id="Icons_crypto_BTC" data-name="Icons/crypto/BTC" xmlns="http://www.w3.org/2000/svg" xmlns:xlink="http://www.w3.org/1999/xlink" width="24" height="24" viewBox="0 0 24 24">
  <g transform="translate(2.5 1.5)">
    <path fill="#1428e5" d="M12.46 8.87c-.488 1.957-3.504.962-4.482.718l.863-3.46c.978.244 4.128.7 3.62 2.741zm-.536 5.59c-.535 2.156-4.158.99-5.333.698l.952-3.823c1.174.293 4.941.875 4.381 3.124zm.486-9.545l.71-2.846-1.733-.432-.691 2.772c-.456-.114-.923-.221-1.388-.327l.696-2.79L8.272.86l-.71 2.846c-.378-.086-.748-.171-1.107-.26l.002-.01-2.39-.596-.46 1.85s1.285.296 1.258.314c.702.175.828.64.807 1.008l-.808 3.243c.048.012.11.03.18.057l-.183-.045-1.133 4.543c-.086.213-.304.533-.794.412.017.025-1.26-.315-1.26-.315l-.86 1.984 2.255.562c.42.105.83.215 1.235.319l-.717 2.88 1.73.431.711-2.849c.473.129.932.247 1.381.359l-.708 2.835 1.733.432.717-2.874c2.955.56 5.177.334 6.112-2.339.754-2.152-.037-3.393-1.592-4.202 1.132-.261 1.985-1.006 2.213-2.545.314-2.101-1.286-3.23-3.474-3.985z" />
  </g>
</svg>
