<?xml version="1.0" encoding="UTF-8"?>
<svg width="24px" height="24px" viewBox="0 0 24 24" version="1.1" xmlns="http://www.w3.org/2000/svg" xmlns:xlink="http://www.w3.org/1999/xlink">
    <!-- Generator: Sketch 63.1 (92452) - https://sketch.com -->
    <title>Icons/crypto/BCH</title>
    <desc>Created with Sketch.</desc>
    <defs>
        <path d="M7.36935019,6.36448015 C7.43153924,6.32716672 7.58079297,6.1903508 7.70517108,6.0784105 C8.26487258,5.56846025 8.1778079,4.63562443 7.50616611,4.2624901 C7.1579074,4.05104731 6.74745964,4.02617169 6.3618875,4.07592293 C5.77731039,4.1505498 5.24248452,4.31224134 4.6579074,4.47393288 C4.53352929,4.49880851 4.52109148,4.54855975 4.5459671,4.67293786 C4.78228551,5.48139557 5.00616611,6.25253985 5.21760889,7.07343537 C5.21760889,7.16050005 5.27979795,7.17293786 5.36686263,7.17293786 C5.51611636,7.12318662 5.64049447,7.09831099 5.7897482,7.06099756 C6.32457407,6.82467915 6.82208651,6.67542542 7.36935019,6.36448015 L7.36935019,6.36448015 Z M6.52357904,11.4266692 C6.56089248,11.4017936 6.61064372,11.4266692 6.61064372,11.4266692 C7.23253427,11.2525398 7.89173825,11.0908483 8.48875317,10.7923408 C8.91163874,10.5933359 9.28477307,10.3818931 9.57084272,10.0336344 C10.0932308,9.46149507 9.881788,8.4664702 9.1977084,8.14308711 C8.87432531,7.96895776 8.51362879,7.95651995 8.14049447,7.94408214 C7.34447457,7.95651995 6.56089248,8.23015179 5.80218601,8.47890801 C5.6778079,8.50378363 5.70268352,8.54109706 5.72755914,8.65303736 C5.85193725,9.02617169 5.92656412,9.38686821 6.05094223,9.76000254 C6.18775815,10.319704 6.3618875,10.8420921 6.52357904,11.4266692 L6.52357904,11.4266692 Z M0.00616610792,4.10079856 C0.42905168,3.98885826 0.839499441,3.83960453 1.27482282,3.72766423 C1.6977084,3.61572393 2.10815616,3.4664702 2.54347954,3.3545299 C2.66785765,3.32965428 2.68029546,3.27990303 2.65541984,3.15552492 C2.45641486,2.50875876 2.28228551,1.88686821 2.08328054,1.24010204 C2.05840491,1.11572393 2.07084272,1.06597269 2.19522083,1.04109706 C2.59323078,0.941594576 2.92905168,0.842092089 3.30218601,0.717713979 C3.42656412,0.692838357 3.43900193,0.73015179 3.45143974,0.817216467 C3.62556909,1.43910701 3.82457407,2.08587318 3.99870342,2.69532592 C4.02357904,2.73263935 4.03601685,2.75751497 4.04845467,2.84457965 C4.35939994,2.75751497 4.69522083,2.64557468 5.00616611,2.55851 C5.04347954,2.53363438 5.03104173,2.4465697 5.04347954,2.39681846 C4.89422581,1.89930602 4.75740989,1.43910701 4.64546959,0.929156765 C4.59571835,0.779903034 4.55840491,0.618211492 4.50865367,0.46895776 C4.47134024,0.406768706 4.48377805,0.344579651 4.57084272,0.344579651 C4.96885268,0.245077163 5.341987,0.120699054 5.76487258,0.00875875535 C5.80218601,-0.0161168665 5.81462382,0.0211965663 5.85193725,0.00875875535 C6.00119098,0.506271193 6.1380069,0.966470198 6.26238501,1.4266692 C6.32457407,1.61323637 6.38676312,1.79980353 6.42407656,2.01124632 C6.44895218,2.13562443 6.49870342,2.14806224 6.62308153,2.12318662 C7.09571835,2.07343537 7.55591735,2.03612194 8.02855417,1.9863707 C8.47631536,1.99880851 8.93651437,2.08587318 9.37183775,2.28487816 C9.96885268,2.62069905 10.3171114,3.1306493 10.4912407,3.75253985 C10.603181,4.17542542 10.6653701,4.59831099 10.5534298,5.02119657 C10.4663651,5.34457965 10.2797979,5.6306493 10.0683552,5.89184333 C10.0310417,5.91671895 10.0186039,5.9664702 9.95641486,6.00378363 C10.1554198,6.02865925 10.3171114,6.01622144 10.5161164,6.04109706 C11.1006935,6.11572393 11.5733303,6.32716672 11.983778,6.72517667 C12.2698477,7.06099756 12.4688527,7.48388313 12.580793,7.90676871 C12.7176089,8.45403239 12.7797979,8.95154483 12.6927333,9.49880851 C12.580793,10.1455747 12.2449721,10.6555249 11.7350218,11.0410971 C11.0882557,11.5510473 10.3793004,11.8744304 9.64546959,12.1605 C9.52109148,12.1853757 9.47134024,12.2600025 9.49621586,12.3719428 C9.67034521,12.9938334 9.86935019,13.6405996 10.0434795,14.2500523 C10.0932308,14.399306 10.1056686,14.4366195 9.89422581,14.4614951 C9.55840491,14.5734354 9.16039496,14.6605 8.81213626,14.7724403 C8.68775815,14.797316 8.67532034,14.7600025 8.66288253,14.6729379 C8.46387755,14.0261717 8.27731039,13.3669677 8.12805666,12.7326394 C8.09074322,12.6704503 8.10318103,12.6082612 8.01611636,12.6206991 C7.70517108,12.7077637 7.39422581,12.7948284 7.05840491,12.9067687 C7.17034521,13.2425896 7.24497208,13.6157239 7.34447457,13.9515448 C7.45641486,14.2873657 7.53104173,14.6605 7.63054422,14.9963209 C7.63054422,15.0833856 7.65541984,15.1206991 7.53104173,15.1455747 C7.13303178,15.2450772 6.75989745,15.3694553 6.38676312,15.4938334 C6.26238501,15.518709 6.2499472,15.4813956 6.23750939,15.3943309 C6.03850442,14.7475647 5.85193725,14.0883607 5.70268352,13.4540324 C5.6778079,13.416719 5.70268352,13.3669677 5.65293228,13.3047787 C4.75740989,13.5535349 3.87432531,13.7898533 2.94148949,14.0634851 C2.92905168,13.8893558 2.90417606,13.7649777 2.89173825,13.5908483 C2.85442481,13.2052762 2.81711138,12.8321418 2.75492233,12.4963209 C2.7300467,12.3719428 2.76736014,12.359505 2.86686263,12.297316 C3.14049447,12.2226891 3.45143974,12.1356244 3.70019596,12.0361219 C4.01114123,11.9490573 4.13551934,11.700301 4.03601685,11.439107 C3.51362879,9.4863707 2.9539273,7.50875876 2.35691238,5.53114682 C2.2698477,5.22020154 1.92158899,5.02119657 1.56089248,5.09582343 C1.20019596,5.1704503 0.851937252,5.2823906 0.55342979,5.36945527 C0.491240735,5.40676871 0.42905168,5.39433089 0.42905168,5.30726622 C0.317111382,4.88438065 0.180295461,4.41174383 0.0683551626,3.98885826 C-0.00627170303,4.16298761 -0.00627170303,4.16298761 0.00616610792,4.10079856 L0.00616610792,4.10079856 Z" id="path-1"></path>
    </defs>
    <g id="Icons/crypto/BCH" stroke="none" stroke-width="1" fill="none" fill-rule="evenodd">
        <g id="Color/blue" transform="translate(6.000000, 4.000000)">
            <mask id="mask-2" fill="white">
                <use xlink:href="#path-1"></use>
            </mask>
            <g id="Mask"></g>
            <g mask="url(#mask-2)" fill="#1428E5" id="Rectangle">
                <g transform="translate(-6.000000, -4.000000)">
                    <rect x="0" y="0" width="24" height="24"></rect>
                </g>
            </g>
        </g>
    </g>
</svg>