<svg xmlns="http://www.w3.org/2000/svg" xmlns:xlink="http://www.w3.org/1999/xlink" width="20" height="15" viewBox="0 0 20 15">
  <defs>
    <clipPath id="clip-path">
      <path id="Combined_Shape" data-name="Combined Shape" d="M2.622,14.878a.416.416,0,0,1,0-.589l9.137-9.137.009-.01.009-.009,2.176-2.176.01-.01L16.789.122a.417.417,0,0,1,.589.59L14.941,3.148A20.55,20.55,0,0,1,19.9,7.231a.417.417,0,0,1,0,.538c-.193.228-4.767,5.565-9.9,5.565a10.33,10.33,0,0,1-4.282-.962L3.211,14.878a.416.416,0,0,1-.589,0ZM10,12.5c4.121,0,8.03-3.925,9.023-5a19.881,19.881,0,0,0-4.7-3.739L12.634,5.455a3.334,3.334,0,0,1-4.678,4.678L6.35,11.739A9.414,9.414,0,0,0,10,12.5ZM10,10a2.5,2.5,0,0,0,2.038-3.949L8.551,9.538A2.48,2.48,0,0,0,10,10ZM3.9,11.363A15.488,15.488,0,0,1,.075,7.738.418.418,0,0,1,.1,7.231C.291,7,4.866,1.666,10,1.666a8.6,8.6,0,0,1,2.734.481A.416.416,0,0,1,13,2.674a.411.411,0,0,1-.527.261A7.811,7.811,0,0,0,10,2.5C5.849,2.5,1.914,6.481.955,7.522a15.259,15.259,0,0,0,3.4,3.146.417.417,0,0,1-.23.764A.4.4,0,0,1,3.9,11.363ZM6.725,8.08A3.255,3.255,0,0,1,6.666,7.5,3.3,3.3,0,0,1,10.58,4.224a.416.416,0,0,1-.145.82A2.464,2.464,0,0,0,10,5,2.5,2.5,0,0,0,7.5,7.5a2.464,2.464,0,0,0,.045.436.416.416,0,0,1-.338.482.334.334,0,0,1-.073.007A.418.418,0,0,1,6.725,8.08Z" transform="translate(2 5)" fill="none"/>
    </clipPath>
  </defs>
  <g id="Group_107" data-name="Group 107" transform="translate(-2 -5)">
    <g id="Mask_Group_107" data-name="Mask Group 107" clip-path="url(#clip-path)">
      <g id="_color" data-name="🎨 color">
        <rect id="Rectangle" width="24" height="24" fill="#1428e5"/>
      </g>
    </g>
  </g>
</svg>
