<svg xmlns="http://www.w3.org/2000/svg" xmlns:xlink="http://www.w3.org/1999/xlink" width="20" height="11.667" viewBox="0 0 20 11.667">
  <defs>
    <clipPath id="clip-path">
      <path id="Mask" d="M10,11.667C4.882,11.667.291,6.33.1,6.1a.417.417,0,0,1,0-.538C.291,5.337,4.883,0,10,0a11.485,11.485,0,0,1,7.148,2.713A14.936,14.936,0,0,1,19.926,5.6.419.419,0,0,1,19.9,6.1C19.709,6.33,15.118,11.667,10,11.667ZM10,.833c-4.093,0-7.941,3.827-9.023,5,1.085,1.172,4.94,5,9.023,5,4.1,0,7.96-3.844,9.045-5.022C18.13,4.645,14.775.833,10,.833Zm0,8.334a3.334,3.334,0,1,1,3.334-3.334A3.337,3.337,0,0,1,10,9.167Zm0-5.834a2.5,2.5,0,1,0,2.5,2.5A2.5,2.5,0,0,0,10,3.334Z"/>
    </clipPath>
  </defs>
  <g id="_color" data-name="🎨 color" transform="translate(0)">
    <path id="Mask-2" data-name="Mask" d="M10,11.667C4.882,11.667.291,6.33.1,6.1a.417.417,0,0,1,0-.538C.291,5.337,4.883,0,10,0a11.485,11.485,0,0,1,7.148,2.713A14.936,14.936,0,0,1,19.926,5.6.419.419,0,0,1,19.9,6.1C19.709,6.33,15.118,11.667,10,11.667ZM10,.833c-4.093,0-7.941,3.827-9.023,5,1.085,1.172,4.94,5,9.023,5,4.1,0,7.96-3.844,9.045-5.022C18.13,4.645,14.775.833,10,.833Zm0,8.334a3.334,3.334,0,1,1,3.334-3.334A3.337,3.337,0,0,1,10,9.167Zm0-5.834a2.5,2.5,0,1,0,2.5,2.5A2.5,2.5,0,0,0,10,3.334Z"/>
    <g id="_color-2" data-name="🎨 color" clip-path="url(#clip-path)">
      <g id="_color-3" data-name="🎨 color" transform="translate(-2 -6)">
        <rect id="Rectangle" width="24" height="24" fill="#1428e5"/>
      </g>
    </g>
  </g>
</svg>
