<svg id="Layer_1" data-name="Layer 1" xmlns="http://www.w3.org/2000/svg" viewBox="0 0 300 300"><defs><style>.cls-1{fill:#1428e5;fill-rule:evenodd;}</style></defs><title>icon_user</title><path class="cls-1" d="M254.64,205.2l-4.49,18.86H227.84A4.15,4.15,0,0,0,224,227c-.84,2.6-1.67,5.19-2.47,7.76q-3,9.66-5.51,17.32c-1.66,5.11-3,9.28-3.94,12.5a51.26,51.26,0,0,0-1.46,5.3c0,1.42.49,2.28,1.46,2.59a17.71,17.71,0,0,0,3,.71h0V276H168.3v-2.83q4.48-.71,4.49-3.3c0-1.89-.75-5.77-2.25-11.67s-3.33-12.76-5.5-20.63-4.5-16.22-7-25.1-4.76-17.25-6.85-25.11h-.45q-2.7,10.38-6.75,23.93t-7.87,26.05q-3.82,12.49-6.52,21.69t-2.7,10.84q0,3.3,5,3.3h0V276H83.3v-2.83a21.43,21.43,0,0,0,3.15-1.06c.9-.39,1.35-1.37,1.35-2.95A47,47,0,0,0,86.33,264q-1.45-4.73-3.93-12.38t-5.51-17.44c-.73-2.37-1.48-4.74-2.23-7.14a4.14,4.14,0,0,0-3.9-3H49.27l-4.5-18.86H62a4.27,4.27,0,0,0,3.89-5.66c-.56-1.79-1.13-3.57-1.69-5.34q-3.16-9.9-5.63-17.8c-1.65-5.26-3-9.63-4-13.08s-1.66-5.43-1.8-5.9c-.45-1.73-1.21-2.59-2.25-2.59h0V152H91.62v2.83a19.3,19.3,0,0,0-3.37,1.06,2.42,2.42,0,0,0-1.35,2.48,33.19,33.19,0,0,0,1.23,4.95q1.23,4.23,3.26,10.84t4.5,14.5h0l5,15.79q2.46,7.91,4.61,15t3.48,11.79h.45q1.35-4.49,3.38-11.43t4.38-14.86q2.35-7.89,4.72-15.91t4.27-14.61q1.92-6.6,3-11a37.46,37.46,0,0,0,1.12-5.06,2.38,2.38,0,0,0-1.68-2.48l-3-1.06h0V152h53.52v2.83a15.21,15.21,0,0,0-2.7,1.06,2.53,2.53,0,0,0-1.12,2.48c0,.15.37,1.73,1.12,4.71s1.72,6.76,2.92,11.32,2.55,9.62,4.05,15.2,2.92,11,4.27,16.27,2.63,10.17,3.83,14.73,2.09,8.1,2.7,10.61h.44c.45-1.89,1.31-4.91,2.59-9.08s2.73-8.84,4.39-14,3.33-10.57,5-16.15,3.34-10.73,4.84-15.44,2.73-8.73,3.71-12a42,42,0,0,0,1.46-5.65,2.83,2.83,0,0,0-1.46-2.83,17.8,17.8,0,0,0-3.26-1.18h0V152h37.77v2.83a3.46,3.46,0,0,0-2.58,1.41,9.4,9.4,0,0,0-1.24,3.07c-.15.47-.75,2.4-1.8,5.77s-2.39,7.63-4,12.73-3.53,10.93-5.62,17.45L233,199.51a4.27,4.27,0,0,0,3.88,5.69h17.73"/><path class="cls-1" d="M149.71,34a48.5,48.5,0,1,0,48.5,48.5A48.49,48.49,0,0,0,149.71,34Zm.29,79a30,30,0,0,1-30-30h60A30,30,0,0,1,150,113Z"/></svg>