<svg xmlns="http://www.w3.org/2000/svg" width="20" height="20" viewBox="0 0 20 20"><g><g><path fill="#1428e5" d="M19.425 12.123c.368.73.575 1.552.575 2.423C20 17.558 17.524 20 14.468 20a5.571 5.571 0 0 1-2.615-.648 9.745 9.745 0 0 1-1.747.158c-5.268 0-9.54-4.21-9.54-9.406 0-.647.068-1.28.194-1.89A5.38 5.38 0 0 1 0 5.455C0 2.441 2.476 0 5.533 0c1.08 0 2.09.307 2.942.837a9.715 9.715 0 0 1 1.63-.138c5.27 0 9.54 4.211 9.54 9.405 0 .693-.075 1.368-.22 2.02zM15.008 14.6a3.533 3.533 0 0 0 .669-2.098c0-.648-.13-1.204-.389-1.658a3.235 3.235 0 0 0-1.075-1.118c-.45-.289-.998-.535-1.635-.734a22.18 22.18 0 0 0-2.11-.545c-.611-.139-1.056-.247-1.321-.32a4.199 4.199 0 0 1-.769-.293 1.692 1.692 0 0 1-.568-.427.812.812 0 0 1-.192-.546c0-.35.194-.645.592-.902.413-.267.971-.402 1.654-.402.738 0 1.273.12 1.594.362.331.248.62.6.857 1.044.206.348.392.591.571.748.19.167.469.253.822.253.388 0 .719-.136.98-.405.26-.265.392-.571.392-.908 0-.348-.101-.709-.299-1.072-.195-.36-.508-.703-.929-1.028-.416-.321-.946-.58-1.576-.773-.626-.193-1.375-.29-2.228-.29-1.067 0-2.009.146-2.8.435-.805.29-1.428.72-1.854 1.268a3.022 3.022 0 0 0-.649 1.902c0 .745.208 1.38.618 1.886.404.497.956.895 1.64 1.181.67.282 1.51.529 2.503.738.728.15 1.317.295 1.751.427.416.13.758.316 1.02.555.247.229.368.521.368.891 0 .47-.23.855-.707 1.174-.487.327-1.134.494-1.924.494-.573 0-1.04-.083-1.386-.243-.344-.162-.613-.367-.802-.612a4.673 4.673 0 0 1-.547-.957c-.152-.349-.34-.621-.56-.805a1.276 1.276 0 0 0-.84-.288c-.4 0-.736.122-.997.365a1.174 1.174 0 0 0-.398.887c0 .553.205 1.124.61 1.7a4.43 4.43 0 0 0 1.572 1.374c.898.47 2.048.707 3.419.707 1.143 0 2.146-.175 2.982-.518.848-.345 1.5-.832 1.941-1.449z"/></g></g></svg>